<?xml version="1.0" encoding="UTF-8" standalone="no"?>
<!-- Created with Inkscape (http://www.inkscape.org/) -->

<svg
   xmlns:dc="http://purl.org/dc/elements/1.1/"
   xmlns:cc="http://creativecommons.org/ns#"
   xmlns:rdf="http://www.w3.org/1999/02/22-rdf-syntax-ns#"
   xmlns:svg="http://www.w3.org/2000/svg"
   xmlns="http://www.w3.org/2000/svg"
   xmlns:sodipodi="http://sodipodi.sourceforge.net/DTD/sodipodi-0.dtd"
   xmlns:inkscape="http://www.inkscape.org/namespaces/inkscape"
   width="210mm"
   height="297mm"
   viewBox="0 0 210 297"
   version="1.1"
   id="svg8"
   inkscape:version="0.92.4 (5da689c313, 2019-01-14)"
   sodipodi:docname="logo.svg">
  <defs
     id="defs2" />
  <sodipodi:namedview
     id="base"
     pagecolor="#ffffff"
     bordercolor="#666666"
     borderopacity="1.0"
     inkscape:pageopacity="0.0"
     inkscape:pageshadow="2"
     inkscape:zoom="0.24748737"
     inkscape:cx="-1394.2672"
     inkscape:cy="903.61123"
     inkscape:document-units="mm"
     inkscape:current-layer="text817"
     showgrid="false"
     inkscape:snap-bbox="true"
     inkscape:bbox-nodes="true"
     inkscape:snap-bbox-edge-midpoints="true"
     inkscape:bbox-paths="true"
     inkscape:snap-bbox-midpoints="true"
     inkscape:snap-intersection-paths="true"
     inkscape:snap-midpoints="true"
     inkscape:snap-object-midpoints="true"
     inkscape:snap-smooth-nodes="true"
     inkscape:object-paths="true"
     inkscape:window-width="1920"
     inkscape:window-height="1027"
     inkscape:window-x="-8"
     inkscape:window-y="-8"
     inkscape:window-maximized="1"
     inkscape:snap-center="true"
     inkscape:snap-text-baseline="true"
     inkscape:snap-page="false" />
  <metadata
     id="metadata5">
    <rdf:RDF>
      <cc:Work
         rdf:about="">
        <dc:format>image/svg+xml</dc:format>
        <dc:type
           rdf:resource="http://purl.org/dc/dcmitype/StillImage" />
        <dc:title />
      </cc:Work>
    </rdf:RDF>
  </metadata>
  <g
     inkscape:label="Layer 1"
     inkscape:groupmode="layer"
     id="layer1">
    <path
       style="opacity:1;fill:#ff8800;fill-opacity:1;stroke:none;stroke-width:2.08928823;stroke-miterlimit:4;stroke-dasharray:none;stroke-opacity:1"
       d="m -263.81538,37.506171 c -10.93796,0 -19.74127,8.805249 -19.74127,19.743105 v 38.00999 a 32.081614,32.081614 0 0 1 32.08299,32.075734 32.081614,32.081614 0 0 1 -32.08299,32.08303 v 38.00999 c 0,10.93789 8.80331,19.74131 19.74127,19.74131 H 67.023071 v -9.9717 c 0,-1.36716 1.099344,-2.4665 2.466541,-2.4665 5.98e-4,0 0.0012,0 0.0018,0 v -5.53378 c -5.99e-4,0 -0.0012,0 -0.0018,0 -1.367197,0 -2.466541,-1.09934 -2.466541,-2.4665 V 185.8745 c 0,-1.3672 1.099344,-2.46654 2.466541,-2.46654 5.98e-4,0 0.0012,0 0.0018,0 v -5.52828 c -5.99e-4,0 -0.0012,0 -0.0018,0 -1.367197,0 -2.466541,-1.09935 -2.466541,-2.46654 v -10.86181 c 0,-1.36719 1.099344,-2.46654 2.466541,-2.46654 5.98e-4,0 0.0012,0 0.0018,0 v -5.52828 c -5.99e-4,0 -0.0012,0 -0.0018,0 -1.367197,0 -2.466541,-1.09934 -2.466541,-2.46654 v -10.8618 c 0,-1.36716 1.099344,-2.46651 2.466541,-2.46651 5.98e-4,0 0.0012,0 0.0018,0 v -5.52832 c -5.99e-4,0 -0.0012,0 -0.0018,0 -1.367197,0 -2.466541,-1.09934 -2.466541,-2.4665 V 121.9105 c 0,-1.36717 1.099344,-2.46838 2.466541,-2.46838 5.98e-4,0 0.0012,0 0.0018,0 v -5.52645 c -5.99e-4,0 -0.0012,0 -0.0018,0 -1.367197,0 -2.466541,-1.10667 -2.466541,-2.47383 v -10.85451 c 0,-1.367164 1.099344,-2.468375 2.466541,-2.468375 5.98e-4,0 0.0012,0 0.0018,0 v -5.528282 c -5.99e-4,0 -0.0012,0 -0.0018,0 -1.367197,0 -2.466541,-1.099344 -2.466541,-2.466505 V 79.262329 c 0,-1.367162 1.099344,-2.466506 2.466541,-2.466506 5.98e-4,0 0.0012,0 0.0018,0 v -5.528282 c -5.99e-4,0 -0.0012,0 -0.0018,0 -1.367197,0 -2.466541,-1.099344 -2.466541,-2.46654 V 57.944657 c 0,-1.367197 1.099344,-2.472001 2.466541,-2.472001 5.98e-4,0 0.0012,0 0.0018,0 v -5.528282 c -5.99e-4,0 -0.0012,0 -0.0018,0 -1.367197,0 -2.466541,-1.099344 -2.466541,-2.466541 v -9.971662 z"
       id="path843"
       inkscape:connector-curvature="0" />
    <g
       aria-label="Tik-Et"
       style="font-style:normal;font-variant:normal;font-weight:normal;font-stretch:normal;font-size:6.13409996px;line-height:1.25;font-family:Georgia;-inkscape-font-specification:'Georgia, Normal';font-variant-ligatures:normal;font-variant-caps:normal;font-variant-numeric:normal;font-feature-settings:normal;text-align:start;letter-spacing:0px;word-spacing:0px;writing-mode:lr-tb;text-anchor:start;fill:#2e2e2e;fill-opacity:1;stroke:none;stroke-width:0.25558692"
       id="text817"
       inkscape:export-xdpi="96"
       inkscape:export-ydpi="96"
       transform="matrix(2.9656143,0,0,2.9656143,-21.337393,38.559339)">
      <path
         d="m -46.125315,27.082003 h -0.727989 q -0.09497,-0.37982 -0.348166,-0.896796 -0.242667,-0.527527 -0.548629,-0.991751 -0.316534,-0.485325 -0.696336,-0.844043 -0.36927,-0.369269 -0.717436,-0.422021 -0.327066,-0.0422 -0.822942,-0.0633 -0.495876,-0.0211 -0.917899,-0.0211 h -0.611929 v 11.974863 q 0,0.34817 0.147699,0.64358 0.1477,0.284867 0.516976,0.443123 0.1899,0.07387 0.791293,0.200467 0.611929,0.126599 0.949548,0.137167 v 0.749085 h -7.068864 v -0.749085 q 0.295434,-0.02114 0.896799,-0.0844 0.611929,-0.0633 0.844042,-0.158267 0.348167,-0.137167 0.506426,-0.390369 0.1688,-0.263767 0.1688,-0.696336 V 23.842987 h -0.611929 q -0.327067,0 -0.812393,0.0211 -0.485326,0.01057 -0.928449,0.0633 -0.348166,0.0422 -0.727985,0.422022 -0.36927,0.369269 -0.685786,0.844043 -0.316534,0.474774 -0.559179,1.012852 -0.242667,0.527527 -0.337599,0.875694 h -0.738539 v -4.061956 h 13.04047 z"
         style="font-style:normal;font-variant:normal;font-weight:normal;font-stretch:normal;font-size:6.13409996px;font-family:Georgia;-inkscape-font-specification:'Georgia, Normal';font-variant-ligatures:normal;font-variant-caps:normal;font-variant-numeric:normal;font-feature-settings:normal;text-align:start;writing-mode:lr-tb;text-anchor:start;fill:#2e2e2e;fill-opacity:1;stroke-width:0.9003107"
         id="path815"
         inkscape:connector-curvature="0" />
      <path
         d="m -40.132609,37.991259 h -5.032607 v -0.696335 q 0.242667,-0.02114 0.495873,-0.0422 0.263766,-0.02114 0.453676,-0.0844 0.295399,-0.09497 0.432569,-0.327066 0.147699,-0.242667 0.147699,-0.622479 v -6.425288 q 0,-0.337616 -0.158266,-0.611931 -0.1477,-0.284866 -0.42202,-0.474774 -0.200467,-0.126607 -0.580283,-0.21101 -0.379816,-0.09496 -0.696332,-0.116056 v -0.685786 l 3.671585,-0.232113 0.1477,0.147706 v 8.482634 q 0,0.369267 0.137167,0.61193 0.147699,0.242666 0.453672,0.358719 0.232099,0.09497 0.453673,0.158267 0.221567,0.05277 0.495876,0.07387 z m -1.329368,-14.633597 q 0,0.601381 -0.40092,1.055054 -0.390373,0.443123 -0.970652,0.443123 -0.538076,0 -0.938995,-0.422022 -0.390373,-0.432572 -0.390373,-0.9812 0,-0.580279 0.390373,-1.012852 0.400919,-0.432572 0.938995,-0.432572 0.601383,0 0.981202,0.411471 0.39037,0.400921 0.39037,0.938998 z"
         style="font-style:normal;font-variant:normal;font-weight:normal;font-stretch:normal;font-size:6.13409996px;font-family:Georgia;-inkscape-font-specification:'Georgia, Normal';font-variant-ligatures:normal;font-variant-caps:normal;font-variant-numeric:normal;font-feature-settings:normal;text-align:start;writing-mode:lr-tb;text-anchor:start;fill:#2e2e2e;fill-opacity:1;stroke-width:0.9003107"
         id="path817"
         inkscape:connector-curvature="0" />
      <path
         d="m -27.830682,37.991259 h -3.144059 q -0.822942,-1.192208 -1.761941,-2.553229 -0.938999,-1.36102 -1.951851,-2.648185 l -0.865142,0.812391 v 2.468827 q 0,0.379818 0.137167,0.633031 0.137167,0.242667 0.443123,0.35872 0.253199,0.105499 0.485322,0.158267 0.232099,0.05277 0.53808,0.07387 v 0.696336 h -5.10646 v -0.696336 q 0.242666,-0.02114 0.506426,-0.0422 0.263766,-0.0317 0.443119,-0.0844 0.295434,-0.09497 0.443123,-0.327066 0.147699,-0.242667 0.147699,-0.62248 V 24.127852 q 0,-0.39037 -0.168799,-0.727987 -0.158267,-0.348166 -0.422023,-0.527527 -0.221567,-0.16881 -0.696332,-0.22156 -0.464227,-0.05275 -0.749089,-0.07385 v -0.675237 l 3.850944,-0.242663 0.1477,0.15826 V 32.8215 q 0.822942,-0.822942 1.772491,-1.76194 0.960099,-0.949548 1.614231,-1.688086 0.0844,-0.09496 0.179367,-0.242663 0.105499,-0.15826 0.105499,-0.253213 0,-0.284863 -0.464222,-0.422022 -0.453673,-0.137156 -0.875696,-0.189909 v -0.675235 h 4.578934 v 0.654133 q -0.886245,0.263763 -1.572028,0.664684 -0.675235,0.39037 -1.033955,0.706886 -0.253199,0.21101 -0.717436,0.685785 -0.464222,0.474775 -1.297715,1.244964 0.865143,1.065605 1.941298,2.553231 1.086705,1.487626 1.582581,2.15231 0.464223,0.622482 0.833492,0.812392 0.36927,0.189899 1.076156,0.232099 z"
         style="font-style:normal;font-variant:normal;font-weight:normal;font-stretch:normal;font-size:6.13409996px;font-family:Georgia;-inkscape-font-specification:'Georgia, Normal';font-variant-ligatures:normal;font-variant-caps:normal;font-variant-numeric:normal;font-feature-settings:normal;text-align:start;writing-mode:lr-tb;text-anchor:start;fill:#2e2e2e;fill-opacity:1;stroke-width:0.9003107"
         id="path819"
         inkscape:connector-curvature="0" />
      <path
         d="m -20.867324,33.08526 h -6.288122 v -1.656435 h 6.288122 z"
         style="font-style:normal;font-variant:normal;font-weight:normal;font-stretch:normal;font-size:6.13409996px;font-family:Georgia;-inkscape-font-specification:'Georgia, Normal';font-variant-ligatures:normal;font-variant-caps:normal;font-variant-numeric:normal;font-feature-settings:normal;text-align:start;writing-mode:lr-tb;text-anchor:start;fill:#2e2e2e;fill-opacity:1;stroke-width:0.9003107"
         id="path821"
         inkscape:connector-curvature="0" />
      <path
         d="m -6.3286797,33.581135 -0.2848664,4.410124 H -19.04208 v -0.749085 q 0.316534,-0.02114 0.844042,-0.0844 0.527526,-0.07387 0.685786,-0.147699 0.337599,-0.158267 0.464223,-0.41147 0.137167,-0.253199 0.137167,-0.643584 V 25.193456 q 0,-0.348166 -0.116067,-0.611931 -0.116067,-0.274313 -0.485323,-0.443123 -0.284866,-0.137156 -0.770189,-0.242663 -0.474776,-0.105506 -0.759639,-0.126606 v -0.749088 h 11.5844917 v 3.608284 h -0.7912889 q -0.2109991,-0.80184 -0.9178989,-1.698636 -0.6963358,-0.907347 -1.3293679,-0.991751 -0.327067,-0.0422 -0.780739,-0.0633 -0.453673,-0.0211 -1.033952,-0.0211 h -2.352771 v 5.950504 h 1.688085 q 0.812392,0 1.181662,-0.147706 0.379819,-0.15826 0.664682,-0.516977 0.232099,-0.305966 0.39037,-0.812391 0.168799,-0.516977 0.221566,-0.97065 h 0.7912891 v 5.855549 h -0.7912891 q -0.0422,-0.506425 -0.232099,-1.065604 -0.179367,-0.569729 -0.379819,-0.822942 -0.327067,-0.411471 -0.749089,-0.538077 -0.41147,-0.126607 -1.097256,-0.126607 h -1.688084 v 4.49453 q 0,0.675234 0.09497,1.065607 0.09497,0.39037 0.36927,0.590829 0.274299,0.200467 0.749089,0.263767 0.474773,0.05277 1.350468,0.05277 0.348166,0 0.917895,0 0.56973,0 0.960099,-0.0422 0.4009231,-0.0422 0.8229425,-0.1477 0.4325728,-0.116067 0.6119326,-0.305966 0.4853261,-0.506426 1.012852,-1.52983 0.5380759,-1.033953 0.6857858,-1.519278 z"
         style="font-style:normal;font-variant:normal;font-weight:normal;font-stretch:normal;font-size:6.13409996px;font-family:Georgia;-inkscape-font-specification:'Georgia, Normal';font-variant-ligatures:normal;font-variant-caps:normal;font-variant-numeric:normal;font-feature-settings:normal;text-align:start;writing-mode:lr-tb;text-anchor:start;fill:#2e2e2e;fill-opacity:1;stroke-width:0.9003107"
         id="path823"
         inkscape:connector-curvature="0" />
      <path
         d="m 1.3732171,37.537587 q -0.68578585,0.284866 -1.29771846,0.474776 -0.61192909,0.200466 -1.49817464,0.200466 -1.3082684,0 -1.8463442,-0.654132 -0.5275295,-0.664686 -0.5275295,-1.867447 v -7.047767 h -1.8779941 v -1.012852 h 1.9201975 v -3.239016 h 1.9201974 v 3.239016 h 2.9858028 v 1.012852 H -1.813049 v 5.813347 q 0,0.654133 0.0422,1.097256 0.052767,0.432572 0.232099,0.759639 0.1687992,0.305966 0.506426,0.464223 0.33763376,0.158266 0.90734542,0.158266 0.26376648,0 0.77018897,-0.0422 0.51697601,-0.05277 0.72798911,-0.1266 z"
         style="font-style:normal;font-variant:normal;font-weight:normal;font-stretch:normal;font-size:6.13409996px;font-family:Georgia;-inkscape-font-specification:'Georgia, Normal';font-variant-ligatures:normal;font-variant-caps:normal;font-variant-numeric:normal;font-feature-settings:normal;text-align:start;writing-mode:lr-tb;text-anchor:start;fill:#2e2e2e;fill-opacity:1;stroke-width:0.9003107"
         id="path825"
         inkscape:connector-curvature="0" />
    </g>
    <path
       style="opacity:1;fill:#2e2e2e;fill-opacity:1;stroke:none;stroke-width:2.08928847;stroke-miterlimit:4;stroke-dasharray:none;stroke-opacity:1"
       d="m 71.957245,37.506405 v 9.971681 c 0,1.36718 -1.09937,2.466521 -2.466531,2.466521 -6.15e-4,0 -0.0012,0 -0.0018,0 V 55.4729 c 6.15e-4,0 0.0012,0 0.0018,0 1.367161,-9e-6 2.466531,1.104813 2.466531,2.471992 v 10.856346 c 0,1.36717 -1.09937,2.46653 -2.466531,2.46653 -6.15e-4,0 -0.0012,0 -0.0018,0 v 5.528293 c 6.15e-4,0 0.0012,0 0.0018,0 1.367161,0 2.466531,1.09936 2.466531,2.466521 v 10.861817 c 0,1.367161 -1.09937,2.466521 -2.466531,2.46653 -6.15e-4,0 -0.0012,0 -0.0018,0 v 5.528293 c 6.15e-4,0 0.0012,0 0.0018,0 1.367161,0 2.466531,1.099351 2.466531,2.466518 v 10.85636 c 0,1.36717 -1.09937,2.4738 -2.466531,2.4738 -6.15e-4,0 -0.0012,0 -0.0018,0 v 5.52647 c 6.15e-4,0 0.0012,0 0.0018,0 1.367161,0 2.466531,1.10118 2.466531,2.46835 v 10.85453 c 0,1.36717 -1.09937,2.46835 -2.466531,2.46835 -6.15e-4,0 -0.0012,0 -0.0018,0 v 5.52829 c 6.15e-4,0 0.0012,0 0.0018,0 1.367161,0 2.466531,1.09935 2.466531,2.46653 v 10.86181 c 0,1.36718 -1.09937,2.46653 -2.466531,2.46653 -6.15e-4,0 -0.0012,0 -0.0018,0 v 5.52829 c 6.15e-4,0 0.0012,0 0.0018,0 1.367161,0 2.466531,1.09935 2.466531,2.46652 v 10.86182 c 0,1.36718 -1.09937,2.46652 -2.466531,2.46652 -6.15e-4,0 -0.0012,0 -0.0018,0 v 5.52829 c 6.15e-4,0 0.0012,0 0.0018,0 1.367161,0 2.466531,1.09935 2.466531,2.46653 v 10.85636 c 0,1.36716 -1.09937,2.46652 -2.466531,2.46652 -6.15e-4,0 -0.0012,0 -0.0018,0 v 5.53375 c 6.15e-4,0 0.0012,0 0.0018,0 1.367161,0 2.466531,1.09935 2.466531,2.46652 v 9.97169 H 180.3988 c 10.93796,0 19.74131,-8.80343 19.74131,-19.74131 V 159.41829 A 32.081614,32.081614 0 0 1 168.0589,127.33525 32.081614,32.081614 0 0 1 200.14011,95.257681 V 57.247709 c 0,-10.937877 -8.80335,-19.741304 -19.74131,-19.741304 z"
       id="path839"
       inkscape:connector-curvature="0" />
  </g>
</svg>
